<svg xmlns="http://www.w3.org/2000/svg" viewBox="0 0 500 500"><g id="freepik--background-simple--inject-71"><path d="M438.56,430.13A58,58,0,0,0,452,418.36c28.63-34.66,28.33-83.56,26.36-125.7-2.32-49.74-11.12-99.51-36.56-143.38C417.32,107,380.37,71.07,334.13,51.85A203.51,203.51,0,0,0,294.43,40a159.51,159.51,0,0,0-75.76,3.55,228.86,228.86,0,0,0-27.38,10.3C130.45,81,122,136.88,98.34,192.81,81.59,232.41,42.2,258.28,25.5,297.93,6.79,342.33,36.77,390.85,75,414.68a151.81,151.81,0,0,0,27.85,13.53c90.92,33.46,193.46,43.72,288.1,19.37C406.9,443.48,424.55,439.13,438.56,430.13Z" style="fill:#5E7664"></path><path d="M438.56,430.13A58,58,0,0,0,452,418.36c28.63-34.66,28.33-83.56,26.36-125.7-2.32-49.74-11.12-99.51-36.56-143.38C417.32,107,380.37,71.07,334.13,51.85A203.51,203.51,0,0,0,294.43,40a159.51,159.51,0,0,0-75.76,3.55,228.86,228.86,0,0,0-27.38,10.3C130.45,81,122,136.88,98.34,192.81,81.59,232.41,42.2,258.28,25.5,297.93,6.79,342.33,36.77,390.85,75,414.68a151.81,151.81,0,0,0,27.85,13.53c90.92,33.46,193.46,43.72,288.1,19.37C406.9,443.48,424.55,439.13,438.56,430.13Z" style="fill:#fff;opacity:0.7000000000000001"></path></g><g id="freepik--Floor--inject-71"><line x1="26.45" y1="467.97" x2="481.15" y2="467.97" style="fill:none;stroke:#263238;stroke-linecap:round;stroke-linejoin:round"></line></g><g id="freepik--Plant--inject-71"><line x1="50.79" y1="286.09" x2="65.14" y2="423.55" style="fill:none;stroke:#263238;stroke-miterlimit:10;stroke-width:2px"></line><line x1="62.83" y1="397.25" x2="56.32" y2="390.38" style="fill:none;stroke:#263238;stroke-miterlimit:10;stroke-width:2px"></line><path d="M58.3,392.44a7.4,7.4,0,0,0-2.59-5.52c-1.67-1.49-10.46-5.19-11.29-2.09C43.51,388.19,52.51,394.8,58.3,392.44Z" style="fill:#5E7664;stroke:#263238;stroke-miterlimit:10"></path><line x1="58.3" y1="392.44" x2="49.93" y2="387.22" style="fill:none;stroke:#263238;stroke-miterlimit:10;stroke-width:0.5px"></line><line x1="64.46" y1="412.88" x2="57.95" y2="406.01" style="fill:none;stroke:#263238;stroke-miterlimit:10;stroke-width:2px"></line><path d="M59.93,408.07a7.35,7.35,0,0,0-2.59-5.52c-1.67-1.49-10.45-5.18-11.29-2.09C45.15,403.83,54.14,410.43,59.93,408.07Z" style="fill:#5E7664;stroke:#263238;stroke-miterlimit:10"></path><line x1="59.93" y1="408.07" x2="51.57" y2="402.86" style="fill:none;stroke:#263238;stroke-miterlimit:10;stroke-width:0.5px"></line><line x1="58.84" y1="359.1" x2="52.34" y2="352.23" style="fill:none;stroke:#263238;stroke-miterlimit:10;stroke-width:2px"></line><path d="M54.32,354.29a7.4,7.4,0,0,0-2.59-5.52c-1.67-1.49-10.46-5.19-11.29-2.09C39.53,350,48.52,356.65,54.32,354.29Z" style="fill:#5E7664;stroke:#263238;stroke-miterlimit:10"></path><line x1="54.32" y1="354.29" x2="45.95" y2="349.07" style="fill:none;stroke:#263238;stroke-miterlimit:10;stroke-width:0.5px"></line><line x1="60.48" y1="374.73" x2="53.97" y2="367.86" style="fill:none;stroke:#263238;stroke-miterlimit:10;stroke-width:2px"></line><path d="M56,369.92a7.4,7.4,0,0,0-2.59-5.52c-1.67-1.49-10.46-5.18-11.29-2.09C41.16,365.68,50.16,372.29,56,369.92Z" style="fill:#5E7664;stroke:#263238;stroke-miterlimit:10"></path><line x1="55.95" y1="369.92" x2="47.58" y2="364.71" style="fill:none;stroke:#263238;stroke-miterlimit:10;stroke-width:0.5px"></line><line x1="56.19" y1="333.7" x2="49.69" y2="326.83" style="fill:none;stroke:#263238;stroke-miterlimit:10;stroke-width:2px"></line><path d="M51.67,328.89a7.4,7.4,0,0,0-2.59-5.52c-1.67-1.49-10.46-5.18-11.29-2.09C36.88,324.65,45.87,331.26,51.67,328.89Z" style="fill:#5E7664;stroke:#263238;stroke-miterlimit:10"></path><line x1="51.67" y1="328.89" x2="43.3" y2="323.68" style="fill:none;stroke:#263238;stroke-miterlimit:10;stroke-width:0.5px"></line><line x1="53.53" y1="308.2" x2="47.03" y2="301.33" style="fill:none;stroke:#263238;stroke-miterlimit:10;stroke-width:2px"></line><path d="M49,303.38a7.35,7.35,0,0,0-2.58-5.51c-1.67-1.49-10.46-5.19-11.29-2.09C34.22,299.14,43.21,305.75,49,303.38Z" style="fill:#5E7664;stroke:#263238;stroke-miterlimit:10"></path><line x1="49" y1="303.38" x2="40.64" y2="298.17" style="fill:none;stroke:#263238;stroke-miterlimit:10;stroke-width:0.5px"></line><line x1="61.73" y1="388" x2="66.68" y2="379.93" style="fill:none;stroke:#263238;stroke-miterlimit:10;stroke-width:2px"></line><path d="M65.17,382.35a7.36,7.36,0,0,1,1.39-5.93c1.33-1.8,9.16-7.23,10.62-4.38C78.76,375.15,71.32,383.47,65.17,382.35Z" style="fill:#5E7664;stroke:#263238;stroke-miterlimit:10"></path><line x1="65.17" y1="382.35" x2="72.7" y2="375.16" style="fill:none;stroke:#263238;stroke-miterlimit:10;stroke-width:0.5px"></line><line x1="57.44" y1="346.86" x2="62.38" y2="338.79" style="fill:none;stroke:#263238;stroke-miterlimit:10;stroke-width:2px"></line><path d="M60.88,341.21a7.36,7.36,0,0,1,1.39-5.93c1.32-1.8,9.16-7.23,10.61-4.38C74.46,334,67,342.33,60.88,341.21Z" style="fill:#5E7664;stroke:#263238;stroke-miterlimit:10"></path><line x1="60.88" y1="341.21" x2="68.41" y2="334.02" style="fill:none;stroke:#263238;stroke-miterlimit:10;stroke-width:0.5px"></line><line x1="55.55" y1="328.78" x2="60.5" y2="320.71" style="fill:none;stroke:#263238;stroke-miterlimit:10;stroke-width:2px"></line><path d="M59,323.14a7.39,7.39,0,0,1,1.39-5.94c1.33-1.8,9.16-7.23,10.62-4.38C72.58,315.93,65.14,324.25,59,323.14Z" style="fill:#5E7664;stroke:#263238;stroke-miterlimit:10"></path><line x1="58.99" y1="323.14" x2="66.52" y2="315.94" style="fill:none;stroke:#263238;stroke-miterlimit:10;stroke-width:0.5px"></line><line x1="52.79" y1="302.27" x2="57.73" y2="294.21" style="fill:none;stroke:#263238;stroke-miterlimit:10;stroke-width:2px"></line><path d="M56.22,296.63a7.35,7.35,0,0,1,1.4-5.93c1.32-1.8,9.15-7.24,10.61-4.38C69.81,289.43,62.38,297.75,56.22,296.63Z" style="fill:#5E7664;stroke:#263238;stroke-miterlimit:10"></path><line x1="56.22" y1="296.63" x2="63.75" y2="289.43" style="fill:none;stroke:#263238;stroke-miterlimit:10;stroke-width:0.5px"></line><path d="M50.67,285.33a7.39,7.39,0,0,1,1.39-5.94c1.33-1.8,9.16-7.23,10.62-4.37C64.26,278.12,56.83,286.45,50.67,285.33Z" style="fill:#5E7664;stroke:#263238;stroke-miterlimit:10"></path><line x1="50.67" y1="285.33" x2="58.2" y2="278.13" style="fill:none;stroke:#263238;stroke-miterlimit:10;stroke-width:0.5px"></line><path d="M51.11,285.64a7.41,7.41,0,0,1-5.76-2c-1.65-1.51-6.23-9.87-3.24-11C45.37,271.37,52.87,279.63,51.11,285.64Z" style="fill:#5E7664;stroke:#263238;stroke-miterlimit:10"></path><line x1="51.11" y1="285.64" x2="44.74" y2="277.39" style="fill:none;stroke:#263238;stroke-miterlimit:10;stroke-width:0.5px"></line><line x1="88.63" y1="305.02" x2="74.36" y2="442.49" style="fill:none;stroke:#263238;stroke-miterlimit:10;stroke-width:2px"></line><line x1="77.52" y1="416.27" x2="72.57" y2="408.21" style="fill:none;stroke:#263238;stroke-miterlimit:10;stroke-width:2px"></line><path d="M74.08,410.63a7.35,7.35,0,0,0-1.4-5.93c-1.33-1.8-9.16-7.23-10.61-4.37C60.49,403.44,67.92,411.76,74.08,410.63Z" style="fill:#5E7664;stroke:#263238;stroke-miterlimit:10"></path><line x1="74.08" y1="410.63" x2="66.97" y2="403.81" style="fill:none;stroke:#263238;stroke-miterlimit:10;stroke-width:0.5px"></line><line x1="81.48" y1="378.12" x2="76.53" y2="370.06" style="fill:none;stroke:#263238;stroke-miterlimit:10;stroke-width:2px"></line><path d="M78,372.48a7.35,7.35,0,0,0-1.4-5.93c-1.33-1.8-9.16-7.23-10.62-4.37C64.44,365.29,71.88,373.6,78,372.48Z" style="fill:#5E7664;stroke:#263238;stroke-miterlimit:10"></path><line x1="78.04" y1="372.48" x2="70.93" y2="365.66" style="fill:none;stroke:#263238;stroke-miterlimit:10;stroke-width:0.5px"></line><line x1="79.85" y1="393.76" x2="74.9" y2="385.7" style="fill:none;stroke:#263238;stroke-miterlimit:10;stroke-width:2px"></line><path d="M76.41,388.12A7.36,7.36,0,0,0,75,382.19c-1.33-1.81-9.17-7.23-10.62-4.38C62.82,380.92,70.26,389.24,76.41,388.12Z" style="fill:#5E7664;stroke:#263238;stroke-miterlimit:10"></path><line x1="76.41" y1="388.12" x2="69.3" y2="381.29" style="fill:none;stroke:#263238;stroke-miterlimit:10;stroke-width:0.5px"></line><line x1="84.11" y1="352.73" x2="79.16" y2="344.66" style="fill:none;stroke:#263238;stroke-miterlimit:10;stroke-width:2px"></line><path d="M80.67,347.09a7.39,7.39,0,0,0-1.39-5.94c-1.33-1.8-9.17-7.22-10.62-4.37C67.08,339.89,74.52,348.21,80.67,347.09Z" style="fill:#5E7664;stroke:#263238;stroke-miterlimit:10"></path><line x1="80.67" y1="347.09" x2="73.56" y2="340.26" style="fill:none;stroke:#263238;stroke-miterlimit:10;stroke-width:0.5px"></line><line x1="86.76" y1="327.22" x2="81.81" y2="319.16" style="fill:none;stroke:#263238;stroke-miterlimit:10;stroke-width:2px"></line><path d="M83.32,321.58a7.34,7.34,0,0,0-1.4-5.93c-1.32-1.81-9.16-7.23-10.61-4.38C69.73,314.38,77.16,322.7,83.32,321.58Z" style="fill:#5E7664;stroke:#263238;stroke-miterlimit:10"></path><line x1="83.32" y1="321.58" x2="76.21" y2="314.75" style="fill:none;stroke:#263238;stroke-miterlimit:10;stroke-width:0.5px"></line><line x1="78.35" y1="407" x2="84.85" y2="400.12" style="fill:none;stroke:#263238;stroke-miterlimit:10;stroke-width:2px"></line><path d="M82.88,402.18a7.34,7.34,0,0,1,2.58-5.51c1.67-1.5,10.46-5.2,11.29-2.1C97.66,397.93,88.67,404.55,82.88,402.18Z" style="fill:#5E7664;stroke:#263238;stroke-miterlimit:10"></path><line x1="82.88" y1="402.18" x2="91.73" y2="396.69" style="fill:none;stroke:#263238;stroke-miterlimit:10;stroke-width:0.5px"></line><line x1="82.62" y1="365.85" x2="89.12" y2="358.98" style="fill:none;stroke:#263238;stroke-miterlimit:10;stroke-width:2px"></line><path d="M87.15,361a7.36,7.36,0,0,1,2.58-5.52c1.67-1.49,10.45-5.19,11.29-2.1C101.93,356.79,92.94,363.4,87.15,361Z" style="fill:#5E7664;stroke:#263238;stroke-miterlimit:10"></path><line x1="87.15" y1="361.04" x2="96" y2="355.55" style="fill:none;stroke:#263238;stroke-miterlimit:10;stroke-width:0.5px"></line><line x1="84.5" y1="347.77" x2="91" y2="340.9" style="fill:none;stroke:#263238;stroke-miterlimit:10;stroke-width:2px"></line><path d="M89,343a7.4,7.4,0,0,1,2.59-5.52c1.67-1.49,10.45-5.19,11.29-2.1C103.8,338.71,94.82,345.32,89,343Z" style="fill:#5E7664;stroke:#263238;stroke-miterlimit:10"></path><line x1="89.02" y1="342.96" x2="97.88" y2="337.47" style="fill:none;stroke:#263238;stroke-miterlimit:10;stroke-width:0.5px"></line><line x1="87.25" y1="321.27" x2="93.75" y2="314.39" style="fill:none;stroke:#263238;stroke-miterlimit:10;stroke-width:2px"></line><path d="M91.77,316.45a7.38,7.38,0,0,1,2.59-5.51c1.67-1.5,10.45-5.2,11.29-2.1C106.56,312.2,97.57,318.82,91.77,316.45Z" style="fill:#5E7664;stroke:#263238;stroke-miterlimit:10"></path><line x1="91.77" y1="316.45" x2="100.63" y2="310.96" style="fill:none;stroke:#263238;stroke-miterlimit:10;stroke-width:0.5px"></line><path d="M88.67,304.25a7.36,7.36,0,0,1,2.58-5.52c1.67-1.49,10.46-5.19,11.29-2.1C103.45,300,94.46,306.61,88.67,304.25Z" style="fill:#5E7664;stroke:#263238;stroke-miterlimit:10"></path><line x1="88.67" y1="304.25" x2="97.52" y2="298.76" style="fill:none;stroke:#263238;stroke-miterlimit:10;stroke-width:0.5px"></line><path d="M89,304.64a7.34,7.34,0,0,1-5.21-3.15c-1.31-1.81-4.07-10.94-.91-11.44C86.35,289.5,92,299.13,89,304.64Z" style="fill:#5E7664;stroke:#263238;stroke-miterlimit:10"></path><line x1="89.03" y1="304.64" x2="84.5" y2="295.26" style="fill:none;stroke:#263238;stroke-miterlimit:10;stroke-width:0.5px"></line><line x1="72.28" y1="249.04" x2="72.28" y2="422.88" style="fill:none;stroke:#263238;stroke-miterlimit:10;stroke-width:2px"></line><line x1="72.42" y1="396.75" x2="66.67" y2="389.24" style="fill:none;stroke:#263238;stroke-miterlimit:10;stroke-width:2px"></line><path d="M68.42,391.49a7.36,7.36,0,0,0-2-5.75c-1.51-1.66-9.87-6.25-11-3.26C54.15,385.74,62.41,393.24,68.42,391.49Z" style="fill:#5E7664;stroke:#263238;stroke-miterlimit:10"></path><line x1="68.42" y1="391.49" x2="60.64" y2="385.44" style="fill:none;stroke:#263238;stroke-miterlimit:10;stroke-width:0.5px"></line><line x1="72.42" y1="364.08" x2="66.67" y2="356.57" style="fill:none;stroke:#263238;stroke-miterlimit:10;stroke-width:2px"></line><path d="M68.42,358.82a7.36,7.36,0,0,0-2-5.75c-1.51-1.66-9.87-6.25-11-3.26C54.15,353.07,62.41,360.57,68.42,358.82Z" style="fill:#5E7664;stroke:#263238;stroke-miterlimit:10"></path><line x1="68.42" y1="358.82" x2="60.64" y2="352.77" style="fill:none;stroke:#263238;stroke-miterlimit:10;stroke-width:0.5px"></line><line x1="72.42" y1="325.72" x2="66.67" y2="318.21" style="fill:none;stroke:#263238;stroke-miterlimit:10;stroke-width:2px"></line><path d="M68.42,320.47a7.38,7.38,0,0,0-2-5.76c-1.51-1.66-9.87-6.24-11-3.25C54.15,314.71,62.41,322.22,68.42,320.47Z" style="fill:#5E7664;stroke:#263238;stroke-miterlimit:10"></path><line x1="68.42" y1="320.47" x2="60.64" y2="314.41" style="fill:none;stroke:#263238;stroke-miterlimit:10;stroke-width:0.5px"></line><line x1="72.42" y1="300.19" x2="66.67" y2="292.68" style="fill:none;stroke:#263238;stroke-miterlimit:10;stroke-width:2px"></line><path d="M68.42,294.93a7.36,7.36,0,0,0-2-5.75c-1.51-1.66-9.87-6.25-11-3.26C54.15,289.18,62.41,296.68,68.42,294.93Z" style="fill:#5E7664;stroke:#263238;stroke-miterlimit:10"></path><line x1="68.42" y1="294.93" x2="60.64" y2="288.88" style="fill:none;stroke:#263238;stroke-miterlimit:10;stroke-width:0.5px"></line><line x1="72.42" y1="274.54" x2="66.67" y2="267.03" style="fill:none;stroke:#263238;stroke-miterlimit:10;stroke-width:2px"></line><path d="M68.42,269.29a7.38,7.38,0,0,0-2-5.76c-1.51-1.65-9.87-6.24-11-3.25C54.15,263.53,62.41,271,68.42,269.29Z" style="fill:#5E7664;stroke:#263238;stroke-miterlimit:10"></path><line x1="68.42" y1="269.29" x2="60.64" y2="263.23" style="fill:none;stroke:#263238;stroke-miterlimit:10;stroke-width:0.5px"></line><line x1="72.29" y1="406.72" x2="78.05" y2="399.21" style="fill:none;stroke:#263238;stroke-miterlimit:10;stroke-width:2px"></line><path d="M76.3,401.47a7.38,7.38,0,0,1,2-5.76c1.5-1.65,9.86-6.24,11-3.25C90.56,395.71,82.3,403.22,76.3,401.47Z" style="fill:#5E7664;stroke:#263238;stroke-miterlimit:10"></path><line x1="76.3" y1="401.47" x2="84.54" y2="395.09" style="fill:none;stroke:#263238;stroke-miterlimit:10;stroke-width:0.5px"></line><line x1="72.29" y1="354.76" x2="78.05" y2="347.26" style="fill:none;stroke:#263238;stroke-miterlimit:10;stroke-width:2px"></line><path d="M76.3,349.51a7.38,7.38,0,0,1,2-5.76c1.5-1.65,9.86-6.24,11-3.25C90.56,343.75,82.3,351.26,76.3,349.51Z" style="fill:#5E7664;stroke:#263238;stroke-miterlimit:10"></path><line x1="76.3" y1="349.51" x2="84.54" y2="343.13" style="fill:none;stroke:#263238;stroke-miterlimit:10;stroke-width:0.5px"></line><line x1="72.29" y1="329.12" x2="78.05" y2="321.61" style="fill:none;stroke:#263238;stroke-miterlimit:10;stroke-width:2px"></line><path d="M76.3,323.86a7.36,7.36,0,0,1,2-5.75c1.5-1.66,9.86-6.25,11-3.26C90.56,318.11,82.3,325.61,76.3,323.86Z" style="fill:#5E7664;stroke:#263238;stroke-miterlimit:10"></path><line x1="76.3" y1="323.86" x2="84.54" y2="317.49" style="fill:none;stroke:#263238;stroke-miterlimit:10;stroke-width:0.5px"></line><line x1="72.29" y1="295.22" x2="78.05" y2="287.71" style="fill:none;stroke:#263238;stroke-miterlimit:10;stroke-width:2px"></line><path d="M76.3,290a7.38,7.38,0,0,1,2-5.76c1.5-1.65,9.86-6.24,11-3.25C90.56,284.21,82.3,291.72,76.3,290Z" style="fill:#5E7664;stroke:#263238;stroke-miterlimit:10"></path><line x1="76.3" y1="289.97" x2="84.54" y2="283.59" style="fill:none;stroke:#263238;stroke-miterlimit:10;stroke-width:0.5px"></line><line x1="72.29" y1="268.57" x2="78.05" y2="261.07" style="fill:none;stroke:#263238;stroke-miterlimit:10;stroke-width:2px"></line><path d="M76.3,263.32a7.38,7.38,0,0,1,2-5.76c1.5-1.65,9.86-6.24,11-3.25C90.56,257.56,82.3,265.07,76.3,263.32Z" style="fill:#5E7664;stroke:#263238;stroke-miterlimit:10"></path><line x1="76.3" y1="263.32" x2="84.54" y2="256.94" style="fill:none;stroke:#263238;stroke-miterlimit:10;stroke-width:0.5px"></line><path d="M72,251.5a7.38,7.38,0,0,1,2-5.76c1.51-1.65,9.86-6.24,11-3.25C86.21,245.74,78,253.25,72,251.5Z" style="fill:#5E7664;stroke:#263238;stroke-miterlimit:10"></path><line x1="71.95" y1="251.5" x2="80.19" y2="245.12" style="fill:none;stroke:#263238;stroke-miterlimit:10;stroke-width:0.5px"></line><path d="M72.35,251.85a7.33,7.33,0,0,1-5.51-2.59c-1.49-1.67-5.18-10.46-2.08-11.29C68.12,237.06,74.72,246.06,72.35,251.85Z" style="fill:#5E7664;stroke:#263238;stroke-miterlimit:10"></path><line x1="72.35" y1="251.85" x2="66.87" y2="242.99" style="fill:none;stroke:#263238;stroke-miterlimit:10;stroke-width:0.5px"></line><polygon points="79.43 467.97 61.02 467.97 58.72 421.48 81.73 421.48 79.43 467.97" style="fill:#263238;stroke:#263238;stroke-miterlimit:10"></polygon></g><g id="freepik--Device--inject-71"><path d="M342.65,59.22V438.53a20.5,20.5,0,0,1-20.5,20.5H146.38a20.5,20.5,0,0,1-20.5-20.5V59.22a20.5,20.5,0,0,1,20.5-20.5H322.15A20.5,20.5,0,0,1,342.65,59.22Z" style="fill:#fff"></path><path d="M342.65,61.37a22.56,22.56,0,0,0-5.09-14.3c-10.84,5.25-26.34,16.41-46.42,39.77C248,137,234.77,258.6,183.68,311.45c-21.87,22.63-42,36.53-57.8,45v79.88A22.66,22.66,0,0,0,148.54,459H307.46q1.56-1.93,3.06-4c11.93-16.52,22.89-30.37,32.13-41.43Z" style="fill:#d6d6d6"></path><path d="M125.88,61.37v96.94c17.65-7.87,39-22.83,54.28-51.22,15.48-28.76,35.41-52.18,51.42-68.37h-83A22.66,22.66,0,0,0,125.88,61.37Z" style="fill:#d6d6d6"></path><path d="M142.63,47.81c0,2.57-2.88,3.5-2.9,5.46v.13h2.81v.87H138.8v-.73c0-2.76,2.88-3.29,2.88-5.69,0-.88-.29-1.34-1-1.34s-1,.5-1,1.25v.76h-.89v-.7c0-1.3.59-2.17,1.91-2.17S142.63,46.51,142.63,47.81Z" style="fill:#263238"></path><path d="M147.3,47.8V48a1.68,1.68,0,0,1-1,1.75,1.7,1.7,0,0,1,1,1.77v.66c0,1.3-.61,2.15-1.93,2.15s-1.91-.85-1.91-2.15v-.59h.89v.65c0,.76.32,1.23,1,1.23s1-.45,1-1.32v-.66c0-.84-.35-1.24-1.07-1.26h-.51v-.86h.56a1,1,0,0,0,1-1.16v-.39c0-.88-.31-1.33-1-1.33s-1,.47-1,1.24v.44h-.89V47.8c0-1.3.61-2.15,1.91-2.15S147.3,46.5,147.3,47.8Z" style="fill:#263238"></path><path d="M149.14,48.44v1.19h-.91V48.44Zm0,4.64v1.19h-.91V53.08Z" style="fill:#263238"></path><path d="M151.06,49.21a1.38,1.38,0,0,1,1.27-.7c1.1,0,1.58.8,1.58,2V52.2c0,1.3-.62,2.15-1.92,2.15s-1.91-.85-1.91-2.15v-.58H151v.64c0,.76.31,1.23,1,1.23s1-.47,1-1.23V50.6c0-.77-.31-1.23-1-1.23a.92.92,0,0,0-1,.91v.2h-.89l.24-4.74h3.36v.85H151.2Z" style="fill:#263238"></path><path d="M158.65,47.79v.15h-.89v-.21c0-.77-.31-1.22-1-1.22s-1,.46-1,1.37V49.8a1.36,1.36,0,0,1,1.37-.92c1.1,0,1.59.79,1.59,2v1.3c0,1.3-.65,2.15-2,2.15s-2-.85-2-2.15V47.85c0-1.35.61-2.2,2-2.2S158.65,46.48,158.65,47.79ZM155.72,51v1.28c0,.76.31,1.23,1,1.23s1-.47,1-1.23V51c0-.77-.33-1.23-1-1.23S155.72,50.21,155.72,51Z" style="fill:#263238"></path><rect x="289.33" y="48.16" width="2.41" height="6.02" style="fill:#263238"></rect><rect x="292.54" y="46.96" width="2.41" height="7.22" style="fill:#263238"></rect><rect x="295.75" y="46.1" width="2.41" height="8.08" style="fill:#263238"></rect><rect x="298.96" y="44.61" width="2.41" height="9.57" style="fill:#263238"></rect><path d="M331.16,54H316.72V45.19h14.44Zm-13.64-.8h12.84V46H317.52Z" style="fill:#263238"></path><rect x="318.72" y="46.86" width="7.62" height="5.48" style="fill:#263238"></rect><rect x="330.66" y="48.56" width="1.82" height="2.08" style="fill:#263238"></rect><path d="M311.42,52.09a.58.58,0,0,1-.28-.07c-2.94-1.75-4.88-.13-5-.06a.54.54,0,0,1-.76-.05.55.55,0,0,1,.05-.76c.11-.09,2.59-2.22,6.23-.06a.54.54,0,0,1-.28,1Z" style="fill:#263238"></path><path d="M312.51,50.28a.48.48,0,0,1-.28-.08c-4.25-2.52-7.1-.08-7.13-.05a.55.55,0,0,1-.76,0,.54.54,0,0,1,0-.76s3.48-3,8.4-.06A.54.54,0,0,1,313,50,.53.53,0,0,1,312.51,50.28Z" style="fill:#263238"></path><path d="M313.49,48.18a.52.52,0,0,1-.27-.07c-5.38-3.21-9-.19-9.11-.06a.55.55,0,0,1-.76,0,.53.53,0,0,1,0-.76s4.29-3.68,10.37-.06a.54.54,0,0,1-.28,1Z" style="fill:#263238"></path><path d="M309.8,53a1.36,1.36,0,1,1-1.36-1.35A1.35,1.35,0,0,1,309.8,53Z" style="fill:#263238"></path><path d="M348.48,53.66V66.57h4v36.69h-4v8.34h4v36.69h-4v8.34h4v36.69h-4V444.08A23.89,23.89,0,0,1,324.59,468H144a23.88,23.88,0,0,1-23.89-23.89V132.61h-2.87V95.92h2.87V53.66A23.89,23.89,0,0,1,144,29.77H324.59A23.9,23.9,0,0,1,348.48,53.66ZM286,38.72,279,49.21a11.36,11.36,0,0,1-9.45,5H199a11.38,11.38,0,0,1-9.45-5l-7-10.49H149.77a23.89,23.89,0,0,0-23.89,23.89V435.14A23.9,23.9,0,0,0,149.77,459h169a23.89,23.89,0,0,0,23.89-23.89V62.61a23.88,23.88,0,0,0-23.89-23.89Z" style="fill:#263238"></path><path d="M125.88,432.67v5.86a20.5,20.5,0,0,0,20.5,20.5H322.15a20.5,20.5,0,0,0,20.5-20.5v-5.86Z" style="fill:#263238;stroke:#263238;stroke-linecap:round;stroke-linejoin:round"></path><path d="M144.4,76.49l-15.62,49.74v14.2a11.33,11.33,0,0,1-2.9,7.58V76.49Z" style="fill:#263238;stroke:#263238;stroke-linecap:round;stroke-linejoin:round"></path><path d="M144.6,76.49l-15.55,49.64h0v14.3a11.37,11.37,0,0,0,11.36,11.36h.16a11.37,11.37,0,0,0,11.36-11.36v-14.2l12.15-49.74Z" style="fill:#263238;stroke:#263238;stroke-linecap:round;stroke-linejoin:round"></path><path d="M164.25,76.49l-12.09,49.64h0v14.3a11.37,11.37,0,0,0,11.36,11.36h.16A11.36,11.36,0,0,0,175,140.43v-14.2l8.69-49.74Z" style="fill:#263238;stroke:#263238;stroke-linecap:round;stroke-linejoin:round"></path><path d="M183.9,76.49l-8.64,49.64h0v14.3a11.36,11.36,0,0,0,11.36,11.36h.15a11.36,11.36,0,0,0,11.36-11.36v-14.2l5.22-49.74Z" style="fill:#263238;stroke:#263238;stroke-linecap:round;stroke-linejoin:round"></path><path d="M203.54,76.49l-5.17,49.64h0v14.3a11.36,11.36,0,0,0,11.36,11.36h.16a11.37,11.37,0,0,0,11.36-11.36v-14.2L223,76.49Z" style="fill:#263238;stroke:#263238;stroke-linecap:round;stroke-linejoin:round"></path><path d="M242.63,76.49H223.19l-1.72,49.64h0v14.3a11.37,11.37,0,0,0,11.36,11.36H233a11.37,11.37,0,0,0,11.36-11.36v-14.3h0Z" style="fill:#263238;stroke:#263238;stroke-linecap:round;stroke-linejoin:round"></path><path d="M262.28,76.49H242.83l1.75,49.74v14.2a11.37,11.37,0,0,0,11.36,11.36h.16a11.37,11.37,0,0,0,11.36-11.36v-14.3h0Z" style="fill:#263238;stroke:#263238;stroke-linecap:round;stroke-linejoin:round"></path><path d="M281.92,76.49H262.48l5.22,49.74v14.2a11.36,11.36,0,0,0,11.36,11.36h.15a11.36,11.36,0,0,0,11.36-11.36v-14.3h0Z" style="fill:#263238;stroke:#263238;stroke-linecap:round;stroke-linejoin:round"></path><path d="M301.57,76.49H282.12l8.69,49.74v14.2a11.36,11.36,0,0,0,11.36,11.36h.16a11.37,11.37,0,0,0,11.36-11.36v-14.3h0Z" style="fill:#263238;stroke:#263238;stroke-linecap:round;stroke-linejoin:round"></path><path d="M321.22,76.49H301.77l12.15,49.74v14.2a11.37,11.37,0,0,0,11.36,11.36h.16a11.37,11.37,0,0,0,11.36-11.36v-14.3h0Z" style="fill:#263238;stroke:#263238;stroke-linecap:round;stroke-linejoin:round"></path><path d="M342.65,81.16v69.07a11.35,11.35,0,0,1-5.62-9.8v-14.2L321.41,76.49h19.45Z" style="fill:#263238;stroke:#263238;stroke-linecap:round;stroke-linejoin:round"></path><polygon points="128.79 111.89 105.91 111.89 124.96 62.15 144.41 62.15 128.79 111.89" style="fill:#5E7664;stroke:#263238;stroke-linecap:round;stroke-linejoin:round"></polygon><path d="M105.91,111.79h22.88a0,0,0,0,1,0,0v14.3a11.36,11.36,0,0,1-11.36,11.36h-.16a11.36,11.36,0,0,1-11.36-11.36v-14.3A0,0,0,0,1,105.91,111.79Z" style="fill:#5E7664;stroke:#263238;stroke-linecap:round;stroke-linejoin:round"></path><polygon points="151.9 111.89 129.02 111.89 144.6 62.15 164.05 62.15 151.9 111.89" style="fill:#fff;stroke:#263238;stroke-linecap:round;stroke-linejoin:round"></polygon><path d="M129,111.79H151.9a0,0,0,0,1,0,0v14.3a11.36,11.36,0,0,1-11.36,11.36h-.16A11.36,11.36,0,0,1,129,126.09v-14.3A0,0,0,0,1,129,111.79Z" style="fill:#fff;stroke:#263238;stroke-linecap:round;stroke-linejoin:round"></path><polygon points="175.01 111.89 152.13 111.89 164.25 62.15 183.7 62.15 175.01 111.89" style="fill:#5E7664;stroke:#263238;stroke-linecap:round;stroke-linejoin:round"></polygon><path d="M152.13,111.79H175a0,0,0,0,1,0,0v14.3a11.36,11.36,0,0,1-11.36,11.36h-.16a11.36,11.36,0,0,1-11.36-11.36v-14.3a0,0,0,0,1,0,0Z" style="fill:#5E7664;stroke:#263238;stroke-linecap:round;stroke-linejoin:round"></path><polygon points="198.12 111.89 175.25 111.89 183.9 62.15 203.34 62.15 198.12 111.89" style="fill:#fff;stroke:#263238;stroke-linecap:round;stroke-linejoin:round"></polygon><path d="M175.25,111.79h22.88a0,0,0,0,1,0,0v14.3a11.36,11.36,0,0,1-11.36,11.36h-.16a11.36,11.36,0,0,1-11.36-11.36v-14.3A0,0,0,0,1,175.25,111.79Z" style="fill:#fff;stroke:#263238;stroke-linecap:round;stroke-linejoin:round"></path><polygon points="221.24 111.89 198.36 111.89 203.54 62.15 222.99 62.15 221.24 111.89" style="fill:#5E7664;stroke:#263238;stroke-linecap:round;stroke-linejoin:round"></polygon><path d="M198.36,111.79h22.88a0,0,0,0,1,0,0v14.3a11.36,11.36,0,0,1-11.36,11.36h-.16a11.36,11.36,0,0,1-11.36-11.36v-14.3A0,0,0,0,1,198.36,111.79Z" style="fill:#5E7664;stroke:#263238;stroke-linecap:round;stroke-linejoin:round"></path><polygon points="244.35 111.89 221.47 111.89 223.19 62.15 242.63 62.15 244.35 111.89" style="fill:#fff;stroke:#263238;stroke-linecap:round;stroke-linejoin:round"></polygon><path d="M221.47,111.79h22.88a0,0,0,0,1,0,0v14.3A11.36,11.36,0,0,1,233,137.45h-.16a11.36,11.36,0,0,1-11.36-11.36v-14.3A0,0,0,0,1,221.47,111.79Z" style="fill:#fff;stroke:#263238;stroke-linecap:round;stroke-linejoin:round"></path><polygon points="267.46 111.89 244.58 111.89 242.83 62.15 262.28 62.15 267.46 111.89" style="fill:#5E7664;stroke:#263238;stroke-linecap:round;stroke-linejoin:round"></polygon><path d="M244.58,111.79h22.88a0,0,0,0,1,0,0v14.3a11.36,11.36,0,0,1-11.36,11.36h-.16a11.36,11.36,0,0,1-11.36-11.36v-14.3A0,0,0,0,1,244.58,111.79Z" style="fill:#5E7664;stroke:#263238;stroke-linecap:round;stroke-linejoin:round"></path><polygon points="290.57 111.89 267.69 111.89 262.48 62.15 281.92 62.15 290.57 111.89" style="fill:#fff;stroke:#263238;stroke-linecap:round;stroke-linejoin:round"></polygon><path d="M267.7,111.79h22.88a0,0,0,0,1,0,0v14.3a11.36,11.36,0,0,1-11.36,11.36h-.16a11.36,11.36,0,0,1-11.36-11.36v-14.3A0,0,0,0,1,267.7,111.79Z" style="fill:#fff;stroke:#263238;stroke-linecap:round;stroke-linejoin:round"></path><polygon points="313.69 111.89 290.81 111.89 282.12 62.15 301.57 62.15 313.69 111.89" style="fill:#5E7664;stroke:#263238;stroke-linecap:round;stroke-linejoin:round"></polygon><path d="M290.81,111.79h22.88a0,0,0,0,1,0,0v14.3a11.36,11.36,0,0,1-11.36,11.36h-.16a11.36,11.36,0,0,1-11.36-11.36v-14.3A0,0,0,0,1,290.81,111.79Z" style="fill:#5E7664;stroke:#263238;stroke-linecap:round;stroke-linejoin:round"></path><polygon points="336.8 111.89 313.92 111.89 301.77 62.15 321.21 62.15 336.8 111.89" style="fill:#fff;stroke:#263238;stroke-linecap:round;stroke-linejoin:round"></polygon><path d="M313.92,111.79H336.8a0,0,0,0,1,0,0v14.3a11.36,11.36,0,0,1-11.36,11.36h-.16a11.36,11.36,0,0,1-11.36-11.36v-14.3A0,0,0,0,1,313.92,111.79Z" style="fill:#fff;stroke:#263238;stroke-linecap:round;stroke-linejoin:round"></path><polygon points="359.91 111.89 337.03 111.89 321.41 62.15 340.86 62.15 359.91 111.89" style="fill:#5E7664;stroke:#263238;stroke-linecap:round;stroke-linejoin:round"></polygon><path d="M337,111.79h22.88a0,0,0,0,1,0,0v14.3a11.36,11.36,0,0,1-11.36,11.36h-.16A11.36,11.36,0,0,1,337,126.09v-14.3A0,0,0,0,1,337,111.79Z" style="fill:#5E7664;stroke:#263238;stroke-linecap:round;stroke-linejoin:round"></path><path d="M292.45,301.91H241.37a154.06,154.06,0,0,0,3.59,18.5c2.95,10.63,4.71,23.06,9.9,32.53,6.09,11.13,52.36,11.13,58.45,0,5.19-9.47,6.95-21.9,9.89-32.53a152.36,152.36,0,0,0,3.6-18.5Z" style="fill:#fff;stroke:#263238;stroke-linecap:round;stroke-linejoin:round"></path><path d="M267.33,309V297.44c0-10.62,2.58-20.66,7-27.3h0c5.52-8.28,13.43-7.94,18.74.81l.08.13c4,6.64,6.34,16.21,6.34,26.26v10.78" style="fill:none;stroke:#263238;stroke-linecap:round;stroke-linejoin:round;stroke-width:3px"></path><path d="M264.84,306.32h6a0,0,0,0,1,0,0v10.27a2,2,0,0,1-2,2h-2a2,2,0,0,1-2-2V306.32A0,0,0,0,1,264.84,306.32Z" style="fill:#fff;stroke:#263238;stroke-linecap:round;stroke-linejoin:round"></path><path d="M296.34,306.32h6a0,0,0,0,1,0,0v10.27a2,2,0,0,1-2,2h-2a2,2,0,0,1-2-2V306.32A0,0,0,0,1,296.34,306.32Z" style="fill:#fff;stroke:#263238;stroke-linecap:round;stroke-linejoin:round"></path><path d="M289.28,376H276.55a4.84,4.84,0,0,1-4.84-4.84h0a4.84,4.84,0,0,1,4.84-4.84h12.73a4.84,4.84,0,0,1,4.84,4.84h0A4.84,4.84,0,0,1,289.28,376Z" style="fill:#5E7664;stroke:#263238;stroke-linecap:round;stroke-linejoin:round"></path><path d="M325.22,208.66A62,62,0,0,1,321,231.09l-.84,2.15a2.13,2.13,0,0,1-2,1.35H249.07a2.12,2.12,0,0,1-2-1.32l-.43-1.07a61.84,61.84,0,0,1,.42-47.9h0A2.1,2.1,0,0,1,249,183h69.22a2.12,2.12,0,0,1,1.95,1.27A62,62,0,0,1,325.22,208.66Z" style="fill:#fff;stroke:#263238;stroke-linecap:round;stroke-linejoin:round"></path><polyline points="261.64 185.43 298.82 149.66 304.02 191.57" style="fill:none;stroke:#263238;stroke-linecap:round;stroke-linejoin:round;stroke-width:3px"></polyline><path d="M298.82,149.66s21.66,14.59,18.83,23.53S301.65,169.9,298.82,149.66Z" style="fill:none;stroke:#263238;stroke-linecap:round;stroke-linejoin:round;stroke-width:3px"></path><path d="M313.58,198.91a44.64,44.64,0,0,1-3,16.15l-.6,1.55a1.52,1.52,0,0,1-1.42,1H258.74a1.51,1.51,0,0,1-1.41-1l-.31-.77a44.54,44.54,0,0,1,.3-34.5h0a1.52,1.52,0,0,1,1.4-.92h49.85a1.51,1.51,0,0,1,1.4.92A44.4,44.4,0,0,1,313.58,198.91Z" style="fill:#fff;stroke:#263238;stroke-linecap:round;stroke-linejoin:round"></path><path d="M297.41,203.32c0,3.9-5.79,7.06-12.94,7.06s-13-3.16-13-7.06,5.8-7.06,13-7.06S297.41,199.42,297.41,203.32Z" style="fill:#fff;stroke:#263238;stroke-linecap:round;stroke-linejoin:round"></path><path d="M267.29,218.15c0,1.69-1,3-2.12,3s-2.12-1.36-2.12-3,.95-3.06,2.12-3.06S267.29,216.46,267.29,218.15Z" style="fill:#fff;stroke:#263238;stroke-linecap:round;stroke-linejoin:round"></path><ellipse cx="302.12" cy="218.15" rx="2.12" ry="3.06" style="fill:#fff;stroke:#263238;stroke-linecap:round;stroke-linejoin:round"></ellipse><path d="M289.28,247.7H276.55a4.84,4.84,0,0,1-4.84-4.84h0a4.84,4.84,0,0,1,4.84-4.84h12.73a4.84,4.84,0,0,1,4.84,4.84h0A4.84,4.84,0,0,1,289.28,247.7Z" style="fill:#5E7664;stroke:#263238;stroke-linecap:round;stroke-linejoin:round"></path><path d="M224.22,213.32a42.87,42.87,0,0,1-4.21,18.4l-1.36,2.87h-72l-1-2a42.42,42.42,0,0,1,.42-39.3l.55-1.05h72A43.25,43.25,0,0,1,224.22,213.32Z" style="fill:#fff;stroke:#263238;stroke-linecap:round;stroke-linejoin:round"></path><circle cx="162.01" cy="200.83" r="2.67" style="fill:#fff;stroke:#263238;stroke-linecap:round;stroke-linejoin:round"></circle><circle cx="203.03" cy="200.83" r="2.67" style="fill:#fff;stroke:#263238;stroke-linecap:round;stroke-linejoin:round"></circle><rect x="178.79" y="192.28" width="7.7" height="42.31" style="fill:#fff;stroke:#263238;stroke-linecap:round;stroke-linejoin:round"></rect><path d="M162,200.83v-9.28c0-8.52,3.27-16.58,8.88-21.91h0c7-6.65,17-6.37,23.79.65l.1.11a30.52,30.52,0,0,1,8,21.07v8.65" style="fill:none;stroke:#263238;stroke-linecap:round;stroke-linejoin:round;stroke-width:3px"></path><path d="M189,247.7H176.23a4.84,4.84,0,0,1-4.83-4.84h0a4.84,4.84,0,0,1,4.83-4.84H189a4.84,4.84,0,0,1,4.84,4.84h0A4.84,4.84,0,0,1,189,247.7Z" style="fill:#5E7664;stroke:#263238;stroke-linecap:round;stroke-linejoin:round"></path><path d="M213,295.94H149.78L137.13,347a10.59,10.59,0,0,0,1.15,7.92h0a10.59,10.59,0,0,0,9.13,5.23h67.9a10.59,10.59,0,0,0,9.13-5.23h0A10.6,10.6,0,0,0,225.6,347Z" style="fill:#fff;stroke:#263238;stroke-linecap:round;stroke-linejoin:round"></path><circle cx="156.37" cy="304.6" r="3.22" style="fill:#fff;stroke:#263238;stroke-linecap:round;stroke-linejoin:round"></circle><circle cx="205.82" cy="304.6" r="3.22" style="fill:#fff;stroke:#263238;stroke-linecap:round;stroke-linejoin:round"></circle><path d="M156.37,304.6V293.41c0-10.28,3.94-20,10.71-26.41h0c8.46-8,20.55-7.69,28.68.78l.12.13c6.16,6.42,9.7,15.68,9.7,25.41v10.42" style="fill:none;stroke:#263238;stroke-linecap:round;stroke-linejoin:round;stroke-width:3px"></path><path d="M188.73,311.21H173.47a4.21,4.21,0,0,1-4.22-4.21h0a4.21,4.21,0,0,1,4.22-4.21h15.26a4.2,4.2,0,0,1,4.21,4.21h0A4.2,4.2,0,0,1,188.73,311.21Z" style="fill:#fff;stroke:#263238;stroke-linecap:round;stroke-linejoin:round"></path><path d="M189,376H176.23a4.84,4.84,0,0,1-4.83-4.84h0a4.84,4.84,0,0,1,4.83-4.84H189a4.84,4.84,0,0,1,4.84,4.84h0A4.84,4.84,0,0,1,189,376Z" style="fill:#5E7664;stroke:#263238;stroke-linecap:round;stroke-linejoin:round"></path><rect x="207.19" y="391.15" width="61.18" height="33.4" rx="4.97" style="fill:#5E7664;stroke:#263238;stroke-linecap:round;stroke-linejoin:round"></rect><path d="M220.09,416.46V398.24h4.61a11.71,11.71,0,0,1,2.21.2,5,5,0,0,1,1.78.72,3.37,3.37,0,0,1,1.2,1.43,5.9,5.9,0,0,1,.41,2.37,5,5,0,0,1-.31,1.88,2.86,2.86,0,0,1-.9,1.23,3.24,3.24,0,0,1-1.44.6,3.81,3.81,0,0,1,1.77.72,3.43,3.43,0,0,1,1.08,1.49,6.07,6.07,0,0,1,.36,2.22,7.17,7.17,0,0,1-.35,2.39,4.1,4.1,0,0,1-1,1.66,4.23,4.23,0,0,1-1.66,1,7.29,7.29,0,0,1-2.3.33Zm3.71-10.87h.92a3,3,0,0,0,1.47-.28,1.46,1.46,0,0,0,.68-.85,4.41,4.41,0,0,0,.19-1.41,2.68,2.68,0,0,0-.28-1.33,1.63,1.63,0,0,0-.85-.74,4,4,0,0,0-1.45-.22h-.68Zm0,8.26h1a2.26,2.26,0,0,0,1.92-.7,3.44,3.44,0,0,0,.53-2.09,4.78,4.78,0,0,0-.25-1.72,1.76,1.76,0,0,0-.8-.95,3.09,3.09,0,0,0-1.47-.3h-1Z" style="fill:#263238"></path><path d="M238.13,416.7a6.18,6.18,0,0,1-3.22-.7A3.84,3.84,0,0,1,233.3,414a10.26,10.26,0,0,1-.46-3.25V398.24h3.67v13a8.2,8.2,0,0,0,.1,1.32,2.1,2.1,0,0,0,.45,1.06,1.34,1.34,0,0,0,1.07.41,1.38,1.38,0,0,0,1.09-.41,2,2,0,0,0,.44-1.06,9.54,9.54,0,0,0,.09-1.32v-13h3.66V410.7A10,10,0,0,1,243,414a3.8,3.8,0,0,1-1.61,2.05A6.12,6.12,0,0,1,238.13,416.7Z" style="fill:#263238"></path><path d="M248.38,416.46v-7.22l-3.55-11h3.48l2,6.41,1.82-6.41h3.38l-3.51,11v7.22Z" style="fill:#263238"></path></g><g id="freepik--Character--inject-71"><path d="M395.79,159.93s-4,5-5.36,9.16-.69,6.91-1,8.46-4.49,3.11-4.49,3.81,4.32,4.66,4.32,4.66,1.38,12.27,2.76,12.79,6.22-.35,6.22-.35,3.11,6.57,3.46,7.78,0,6.39,0,6.39l9.16-10.54v-41.3S404.94,151.64,395.79,159.93Z" style="fill:#fff;stroke:#263238;stroke-linecap:round;stroke-linejoin:round"></path><path d="M394.23,176.78c0,.9-.39,1.64-.86,1.64s-.87-.74-.87-1.64.39-1.64.87-1.64S394.23,175.87,394.23,176.78Z" style="fill:#263238"></path><path d="M391.81,187.75s2.59.69,4.84-2.42" style="fill:none;stroke:#263238;stroke-linecap:round;stroke-linejoin:round"></path><path d="M391.81,172.89a2.51,2.51,0,0,1,3.63.52" style="fill:none;stroke:#263238;stroke-linecap:round;stroke-linejoin:round"></path><path d="M402.52,390.34s5.67,53.36,5,57.28-4.79,11.33-7,13.73-6.75,3.27-6.32,4.35,13.07,2,13.73,2,7.4-10.89,7.4-10.89l1.39-1.46-1.6,12.35h2.17s4-10.28,4-14.61-1.73-9.71-2.74-10-.58-22.26,1.81-37.72.22-26.8-.65-33.33,4.14-28.32,5-29.41-27.66-7.84-27.66-7.84Z" style="fill:#fff;stroke:#263238;stroke-linecap:round;stroke-linejoin:round"></path><path d="M397.08,334.79l5.44,55.55s3.14,29.55,4.47,46.29h11.06a235.85,235.85,0,0,1,2.33-31.26c2.4-15.47.22-26.8-.65-33.33s4.14-28.32,5-29.41S397.08,334.79,397.08,334.79Z" style="fill:#263238;stroke:#263238;stroke-linecap:round;stroke-linejoin:round"></path><path d="M415.37,456.77l1.39-1.46-1.6,12.35h2.17s4-10.28,4-14.61a25.88,25.88,0,0,0-1.32-7.47l-1.53,3.57c-.64,1.49-9.76,13.58-10.82,14.22-.71.42-6.06.1-9.6-.17-2,1.11-4.1,1.76-3.8,2.5.44,1.09,13.07,2,13.73,2S415.37,456.77,415.37,456.77Z" style="fill:#263238;stroke:#263238;stroke-linecap:round;stroke-linejoin:round"></path><path d="M407.43,442.63h10.93a11.87,11.87,0,0,1-.21-1.82H407.31C407.35,441.45,407.39,442.06,407.43,442.63Z" style="fill:#263238"></path><path d="M401.36,460.37c-.29.37-.56.71-.8,1a5.44,5.44,0,0,1-.42.41l4.45,5.67,2.45.18Z" style="fill:#263238"></path><path d="M406.08,452c-.28.63-.58,1.28-.9,1.92l6.16,9.15c.36-.55.72-1.1,1.07-1.65Z" style="fill:#263238"></path><polygon points="415.38 465.86 415.16 467.67 416.6 467.67 415.38 465.86" style="fill:#263238"></polygon><path d="M395.77,325.42s-2.4,39.43-.87,44.88,14.37,40.08,16.33,50.53c1.7,9,2.62,21.57,2.62,21.57s-3.92,14.16-5,16.55-2.62,5.23-4.58,6.1-3.48-.22-3.05,1.53,8.28,1.52,10.9,1.08,3.92-.21,5.22-1.74,2.62-5,3.92-7,2.18-3.05,2.18-3.05v11.33h2.18s3.05-12.85,2.62-15.25-3.05-11.11-3.05-11.11-1.09-14.37-.66-25.92,2-18.3-.65-25.92-7.63-22-7.63-22l8.5-37.69Z" style="fill:#fff;stroke:#263238;stroke-linecap:round;stroke-linejoin:round"></path><path d="M424.52,415c.44-11.54,2-18.3-.65-25.92s-7.63-22-7.63-22l8.5-37.69-29-3.92s-2.4,39.43-.87,44.88,14.37,40.08,16.33,50.53c1,5.41,1.76,12.08,2.18,16.56H425C424.66,432.42,424.22,423,424.52,415Z" style="fill:#263238;stroke:#263238;stroke-linecap:round;stroke-linejoin:round"></path><path d="M427,460.78c.73-3.58,1.43-7.57,1.21-8.8-.07-.37-.2-.92-.36-1.54a30.68,30.68,0,0,0-5,1.73l-4.34-9.08h7.26c-.23-.79-.42-1.43-.54-1.82H413.76c.06.72.09,1.13.09,1.13l-.19.69h2.89l4.76,10a9.64,9.64,0,0,0-.93.67c-1.67,1.44-2.95,3.73-4.27,5.86l-5.18-7-.66,2.16,4.79,6.47a11,11,0,0,1-2.52,2.75,5.78,5.78,0,0,1-1.17.64l-3.21-4.24c-.3.59-.63,1.17-1,1.73l2.31,3.05a16.06,16.06,0,0,1-5.24-.09c-2,.87-3.48-.22-3.05,1.53s7.22,1.54,10.27,1.17h0c.23,0,.44-.05.63-.09l.85-.12.58-.08h0c1.7-.21,2.75-.32,3.79-1.54a13.94,13.94,0,0,0,1.58-2.56h0c.78-1.52,1.56-3.23,2.34-4.41s1.34-1.93,1.72-2.44h0l.46-.61v11.33h2.18s.72-3,1.41-6.44Z" style="fill:#263238"></path><path d="M431.44,213.54s6.49,37.15,6.75,44.94,1.56,12.21,1.3,14.29-5.71,5.72-5.71,5.72Z" style="fill:#fff;stroke:#263238;stroke-linecap:round;stroke-linejoin:round"></path><path d="M411.16,199s-9.85,12.44-11.92,13.82-6.91,1.56-6.22,4.15a31.4,31.4,0,0,0,2.25,5.53s-7.6,10.54-6.4,15S392.33,260,392.33,260l1.21,20.91s-3.8,6.91-1.56,9.33,36.81,7.08,42.51,7.25,3.11-7.25,2.07-11.92a132.49,132.49,0,0,1-1.9-30.41c.69-13.13,1.38-24.53-1.38-36.45s-.35-12.27-8.12-17.28S411.16,199,411.16,199Z" style="fill:#fff;stroke:#263238;stroke-linecap:round;stroke-linejoin:round"></path><line x1="408.33" y1="243.41" x2="404.05" y2="238.49" style="fill:none;stroke:#263238;stroke-linecap:round;stroke-linejoin:round"></line><path d="M400.47,216.91a24.17,24.17,0,0,1,7-6.46" style="fill:none;stroke:#263238;stroke-linecap:round;stroke-linejoin:round"></path><path d="M398.27,220.94a13.92,13.92,0,0,1,1.28-2.62" style="fill:none;stroke:#263238;stroke-linecap:round;stroke-linejoin:round"></path><path d="M390.6,159.76s3.11,6.22,5.88,10.54,9.33,13.3,9.33,13.3l-1.9,24.19s7.6,3.63,13.13,4,12.78-1.38,15.55-2.07a18.91,18.91,0,0,1,4-.69s-3.28-15.2-3.45-22.29.86-23.67-4.32-29.54S418.42,149.22,406,151,387.49,154.57,390.6,159.76Z" style="fill:#263238;stroke:#263238;stroke-linecap:round;stroke-linejoin:round"></path><path d="M412.28,290.94l-26.84-2.59s-10,43.68-7,45.72,45,12.4,51.82,12.21,10.18-.74,11.85-2.78,3.14-4.07,2.77-10.73-3-38.5-3-38.5Z" style="fill:#5E7664;stroke:#263238;stroke-linecap:round;stroke-linejoin:round"></path><path d="M381.74,303l13.15,2.4a3,3,0,0,1,2.38,3.37l-.79,2.88a2.83,2.83,0,0,0,2.47,3.2l19.76,3.58a2.84,2.84,0,0,0,3.12-2.31l1-5.69a3,3,0,0,1,3.34-2.45l13.65,1.69-.56-15.18" style="fill:none;stroke:#263238;stroke-linecap:round;stroke-linejoin:round"></path><path d="M439.49,311.12s-.19,23.5,0,27.76-3.7,6.48-3.7,6.48" style="fill:none;stroke:#263238;stroke-linecap:round;stroke-linejoin:round"></path><circle cx="400.81" cy="304.27" r="1.85" style="fill:none;stroke:#263238;stroke-linecap:round;stroke-linejoin:round"></circle><path d="M420.79,307a1.85,1.85,0,1,0-1.85,1.85A1.85,1.85,0,0,0,420.79,307Z" style="fill:none;stroke:#263238;stroke-linecap:round;stroke-linejoin:round"></path><path d="M400.81,304.27l-.16,0a.9.9,0,0,1-.74-1.05l3.52-28.15a.91.91,0,0,1,1.05-.73.92.92,0,0,1,.74,1.05l-3.52,28.15A.91.91,0,0,1,400.81,304.27Z" style="fill:#5E7664;stroke:#263238;stroke-linecap:round;stroke-linejoin:round"></path><path d="M409.56,226.78l-1.74,36a12.91,12.91,0,0,1,6.49,6.24c2,4.49,2.74,12.23,2.74,12.23s5,1.5,6.5,0,6-42.94,5.74-54.68" style="fill:#fff;stroke:#263238;stroke-linecap:round;stroke-linejoin:round"></path><path d="M410.24,260.22s-4.81.55-4.25,1.67a30.3,30.3,0,0,1,2.59,11.28A27.36,27.36,0,0,1,408,280a38.54,38.54,0,0,0,7,2.59c3.7.93,9.2,2.2,8.49-1.4s-1.83-12.11-5-16.18A14.09,14.09,0,0,0,410.24,260.22Z" style="fill:#fff;stroke:#263238;stroke-linecap:round;stroke-linejoin:round"></path><path d="M407.82,262.74S367.12,250,365.09,251a33.26,33.26,0,0,0-5.37,3.7s-4.44-2.41-5.18-1.85-2.22,5.36-1.48,5.92,6.66,4.44,7.95,4.26,6.48-6.85,6.48-6.85S405.8,280.39,408,280s5.56-5.55,4.26-10A17.36,17.36,0,0,0,407.82,262.74Z" style="fill:#fff;stroke:#263238;stroke-linecap:round;stroke-linejoin:round"></path><path d="M367.68,251.89s-1.85-2-4.08-1.48-3.88,4.26-3.88,4.26-5.55,2.22-4.26,3,4.07-.37,4.81-.56,4.63-2,4.63-2" style="fill:#fff;stroke:#263238;stroke-linecap:round;stroke-linejoin:round"></path><path d="M419.31,307.58h-.08a.91.91,0,0,1-.82-1c0-.26,2.36-26.73-.33-34.6-2.56-7.52-12-10.09-12.09-10.1-.5-.09-1,.34-.9-.15a.9.9,0,0,1,1-.75c.44.07,10.75,1.85,13.67,10.41,2.81,8.23.52,34.25.42,35.35A.91.91,0,0,1,419.31,307.58Z" style="fill:#5E7664;stroke:#263238;stroke-linecap:round;stroke-linejoin:round"></path></g></svg>
