<svg width="200" height="200" viewBox="0 0 200 200" fill="none" xmlns="http://www.w3.org/2000/svg">
<g clip-path="url(#clip0_56_30)">
<path d="M142.553 142.5H92.5526V74.8308L135.786 98.515L142.553 142.5Z" fill="#2F2E41"/>
<path d="M101.789 130.557C119.718 130.557 134.251 116.023 134.251 98.0948C134.251 80.1666 119.718 65.6328 101.789 65.6328C83.8612 65.6328 69.3275 80.1666 69.3275 98.0948C69.3275 116.023 83.8612 130.557 101.789 130.557Z" fill="#FFB6B6"/>
<path d="M83.1542 135.357L81.6876 120.532L110.974 115.056L128.267 157.162L98.1918 191.748L76.7632 149.643L83.1542 135.357Z" fill="#FFB6B6"/>
<path d="M171.82 169.583C171.455 169.962 171.083 170.338 170.711 170.711C169.53 171.891 168.327 173.038 167.098 174.15C148.677 190.857 125.041 200 100 200C76.9135 200 55.0226 192.229 37.312 177.925C37.3008 177.917 37.2932 177.91 37.2819 177.898C36.7444 177.466 36.2143 177.026 35.6842 176.579C35.7782 176.308 35.8797 176.041 35.9812 175.778C41.6767 160.94 52.9248 153.68 59.7519 150.504C63.1353 148.929 65.4323 148.353 65.4323 148.353L73.4474 133.917L79.0902 144.444L83.2481 152.203L100.308 184.034L115.026 147.387L119.586 136.026L120.756 133.117L126.316 137.444L131.579 141.538L142.177 143.876L150.774 145.774L162.451 148.353C167.173 152.199 170.045 159.515 171.65 168.605C171.711 168.929 171.767 169.256 171.82 169.583Z" fill="#63FFEE"/>
<path d="M84.7141 61.2042C88.6683 54.5621 95.9306 50.0048 103.631 49.3331C111.332 48.6615 119.274 51.8926 124.318 57.7498C127.324 61.2401 129.295 65.5147 132.225 69.069C138.531 76.7176 149.282 81.1898 152.037 90.7121C153.239 94.8673 152.64 99.3035 152.032 103.586C151.51 107.257 150.989 110.928 150.468 114.598C150.062 117.455 149.673 120.466 150.744 123.146C152.001 126.289 155.008 128.347 156.953 131.118C160.261 135.833 160.02 142.736 156.389 147.208C154.815 149.147 152.727 150.61 151.077 152.484C149.426 154.359 148.202 156.923 148.893 159.323C150.217 163.921 157.428 165.024 158.219 169.743C158.624 172.156 156.957 174.566 154.774 175.669C152.59 176.772 150.02 176.804 147.591 176.509C138.36 175.387 129.814 169.62 125.32 161.479C120.825 153.339 120.498 143.034 124.467 134.625C127.726 127.718 133.785 121.615 133.719 113.978C133.683 109.818 131.774 105.932 129.908 102.213C126.089 94.6019 122.27 86.9907 118.451 79.3795C116.405 75.3025 114.03 70.9089 109.819 69.1575C106.563 67.8039 102.87 68.3289 99.3883 68.8825C95.9067 69.4362 92.2185 69.9751 88.9537 68.645C85.6889 67.3149 83.222 63.3631 84.7775 60.1995" fill="#2F2E41"/>
<path d="M90.4028 61.5511C84.1311 59.4866 77.0956 62.8008 72.8497 67.8573C68.6037 72.9137 66.5441 79.4009 64.582 85.7053C63.4581 89.3165 62.3342 92.9278 61.2104 96.539C60.1531 99.9361 59.0959 103.333 58.0386 106.73C56.7951 110.726 55.5414 114.971 56.562 119.029C57.2998 121.963 59.1983 124.628 59.2391 127.653C59.2818 130.813 57.3029 133.587 55.5686 136.229C53.8344 138.871 52.2064 142.01 53.0327 145.06C54.2895 149.7 60.7402 152.25 60.3866 157.044C60.2686 158.644 59.3434 160.124 59.3602 161.728C59.3816 163.769 60.9795 165.533 62.8517 166.346C64.7239 167.159 66.8298 167.203 68.8706 167.167C75.1305 167.057 81.3791 166.314 87.4901 164.952C89.8413 164.428 92.2322 163.786 94.1892 162.381C96.1463 160.977 97.6063 158.65 97.3516 156.255C96.9547 152.522 92.9415 150.405 90.9163 147.244C88.927 144.14 88.9731 140.207 88.1154 136.621C86.9365 131.693 84.025 127.391 81.8394 122.82C73.6225 105.633 76.4989 83.7267 88.8741 69.244C89.9683 67.9635 91.1637 66.6753 91.6202 65.054C92.0767 63.4328 91.4882 61.3671 89.9023 60.7999" fill="#2F2E41"/>
<path d="M170.711 29.2895C151.823 10.4022 126.711 0 100 0C73.2895 0 48.1767 10.4022 29.2895 29.2895C10.4022 48.1767 0 73.2895 0 100C0 124.38 8.66541 147.429 24.5451 165.628C26.0602 167.368 27.6429 169.064 29.2895 170.711C29.6767 171.098 30.0677 171.485 30.4624 171.861C31.515 172.88 32.5865 173.876 33.6767 174.842C34.3384 175.432 35.0075 176.011 35.6842 176.579C36.2143 177.026 36.7444 177.466 37.282 177.898C37.2932 177.91 37.3008 177.917 37.312 177.925C55.0226 192.229 76.9136 200 100 200C125.041 200 148.677 190.857 167.098 174.15C168.327 173.038 169.53 171.891 170.711 170.711C171.083 170.338 171.455 169.962 171.82 169.583C172.835 168.538 173.82 167.474 174.782 166.395C191.086 148.079 200 124.726 200 100C200 73.2895 189.598 48.1767 170.711 29.2895V29.2895ZM174.538 165.459C173.598 166.526 172.635 167.579 171.65 168.605C170.117 170.203 168.534 171.752 166.898 173.244C166.278 173.816 165.65 174.372 165.015 174.925C158.598 180.508 151.455 185.274 143.752 189.071C141.049 190.406 138.278 191.62 135.444 192.707C124.432 196.932 112.481 199.248 100 199.248C87.9549 199.248 76.406 197.09 65.718 193.143C61.3308 191.526 57.0902 189.605 53.0188 187.406C52.4211 187.083 51.8271 186.756 51.2368 186.421C48.1316 184.662 45.1278 182.741 42.2444 180.665C40.0902 179.12 38 177.492 35.9812 175.778C35.2744 175.18 34.5752 174.575 33.8872 173.955C32.7669 172.959 31.6692 171.932 30.5978 170.88C28.5677 168.891 26.6278 166.82 24.7744 164.665C9.80828 147.282 0.75188 124.68 0.75188 100C0.75188 45.2744 45.2744 0.75188 100 0.75188C154.726 0.75188 199.248 45.2744 199.248 100C199.248 125.06 189.914 147.977 174.538 165.459Z" fill="#3F3D56" fill-opacity="0.1"/>
</g>
<defs>
<clipPath id="clip0_56_30">
<rect width="200" height="200" fill="white"/>
</clipPath>
</defs>
</svg>
