<svg width="200" height="200" viewBox="0 0 200 200" fill="none" xmlns="http://www.w3.org/2000/svg">
<g clip-path="url(#clip0_55_22)">
<path d="M101.789 130.558C119.718 130.558 134.251 116.024 134.251 98.0956C134.251 80.1673 119.718 65.6335 101.789 65.6335C83.8611 65.6335 69.3274 80.1673 69.3274 98.0956C69.3274 116.024 83.8611 130.558 101.789 130.558Z" fill="#FFB6B6"/>
<path d="M83.1541 135.358L81.6875 120.533L110.974 115.057L128.267 157.162L98.1917 191.749L76.7631 149.644L83.1541 135.358Z" fill="#FFB6B6"/>
<path d="M81.2171 127.954L87.6197 129.401C87.6197 129.401 82.5866 113.44 84.2949 111.916C86.0033 110.393 90.1897 112.794 90.1897 112.794L94.589 117.726L99.9476 112.27C99.9476 112.27 105.765 105.036 108.043 103.005C110.321 100.973 106.662 93.4318 106.662 93.4318C106.662 93.4318 140.456 84.3193 127.881 67.9282C127.881 67.9282 120.509 55.0769 118.108 59.2632C115.707 63.4496 112.844 56.8008 112.844 56.8008L104.102 58.4632C104.102 58.4632 86.8486 48.2901 70.473 70.0533C54.0975 91.8164 81.2171 127.954 81.2171 127.954H81.2171V127.954Z" fill="#2F2E41"/>
<path d="M162.842 177.801C145.102 192.184 123.154 200 100 200C78.8572 200 58.7181 193.481 41.8722 181.398C41.9023 181.083 41.9324 180.771 41.9587 180.459C42.406 175.571 42.8045 170.82 43.0677 166.88C44.0865 151.583 79.7745 141.387 79.7745 141.387C79.7745 141.387 79.9361 141.549 80.2594 141.831C82.2293 143.56 90.2256 149.831 104.248 151.583C116.752 153.147 120.868 145.729 122.113 142.177C122.489 141.094 122.602 140.368 122.602 140.368L159.308 157.703C161.703 161.124 162.639 168.492 162.823 176.774C162.831 177.117 162.838 177.455 162.842 177.801Z" fill="#63FFEE"/>
</g>
<defs>
<clipPath id="clip0_55_22">
<rect width="200" height="200" fill="white"/>
</clipPath>
</defs>
</svg>
